# xmcd
#
# Track frame offsets:
#	150
#	15005
#	35585
#	51462
#	70847
#	84896
#	94525
#	106502
#	118943
#	133031
#	152469
#	163590
#	182102
#
# Disc length: 2657 seconds
# Revision: 0
# Processed by: cddbd v1.5.2PL0 Copyright (c) Steve Scherf et al.
# Submitted via: dBpowerAMP V12.0
#
DISCID=960a5f0d
DTITLE=Joshua Palmer - Metacognition
DYEAR=2014
DGENRE=Country: Bluegrass
TTITLE0=Train of Tears
TTITLE1=Metacognition
TTITLE2=Owl's Hollow
TTITLE3=Apollo 11
TTITLE4=Hammer Down
TTITLE5=Poe
TTITLE6=Anthem-Revelation
TTITLE7=The Shipmaster
TTITLE8=Pride of Man
TTITLE9=The Dusk
TTITLE10=That Raven and the Crow
TTITLE11=Misty Morning
TTITLE12=Hour Glass Waltz
EXTD=
EXTT0=
EXTT1=
EXTT2=
EXTT3=
EXTT4=
EXTT5=
EXTT6=
EXTT7=
EXTT8=
EXTT9=
EXTT10=
EXTT11=
EXTT12=
PLAYORDER=
